# xmcd
# Copyright (C) 1995-1998 Ti Kan
#
# Track frame offsets:
#       150
#       13515
#       24620
#       36071
#       48291
#
# Disc length: 801 seconds
#
# Revision: 1
# Processed by: cddbd v1.5.2PL0 Copyright (c) Steve Scherf et al.
# Submitted via: CD-Import v1.0
#
DISCID=31031f05
DTITLE=U - Lied Der Woche 6-10 April 09
DYEAR=1900
DGENRE=
TTITLE0=7th Son
TTITLE1=7th Son
TTITLE2=7th Son
TTITLE3=7th Son
TTITLE4=7thson
EXTD=
EXTT0=
EXTT1=
EXTT2=
EXTT3=
EXTT4=
PLAYORDER=
